<?xml version="1.0" encoding="UTF-8" standalone="no"?>
<svg
   width="240.36501"
   zoomAndPan="magnify"
   viewBox="0 0 180.27376 55.116"
   height="73.487999"
   preserveAspectRatio="xMidYMid"
   version="1.2"
   id="svg10"
   sodipodi:docname="Karoo Dark Short.svg"
   inkscape:version="1.4.2 (ebf0e940d0, 2025-05-08)"
   xmlns:inkscape="http://www.inkscape.org/namespaces/inkscape"
   xmlns:sodipodi="http://sodipodi.sourceforge.net/DTD/sodipodi-0.dtd"
   xmlns="http://www.w3.org/2000/svg"
   xmlns:svg="http://www.w3.org/2000/svg">
  <sodipodi:namedview
     id="namedview10"
     pagecolor="#ffffff"
     bordercolor="#000000"
     borderopacity="0.25"
     inkscape:showpageshadow="2"
     inkscape:pageopacity="0.0"
     inkscape:pagecheckerboard="0"
     inkscape:deskcolor="#d1d1d1"
     inkscape:zoom="7.812048"
     inkscape:cx="152.96885"
     inkscape:cy="32.385874"
     inkscape:window-width="3840"
     inkscape:window-height="2069"
     inkscape:window-x="0"
     inkscape:window-y="0"
     inkscape:window-maximized="1"
     inkscape:current-layer="svg10" />
  <defs
     id="defs1" />
  <g
     id="0d2ffada52"
     transform="translate(-35.25,-35.119401)">
    <g
       style="fill:#5a8a92;fill-opacity:1"
       id="g2">
      <g
         transform="translate(31.726605,84.369401)"
         id="g1">
        <path
           style="stroke:none"
           d="M 6.09375,0.015625 6.28125,-48.5 l 4.78125,0.03125 -0.109375,28.1875 26.875,-28.171875 5.265625,0.01563 -19.921875,21.29687 L 43.9375,0.171875 38.53125,0.140625 20.078125,-24.28125 10.9375,-14.875 10.875,0.046875 Z m 0,0"
           id="path1" />
      </g>
    </g>
    <g
       style="fill:#5a8a92;fill-opacity:1"
       id="g4">
      <g
         transform="translate(75.727965,84.537305)"
         id="g3">
        <path
           style="stroke:none"
           d="m 2.3125,-10.25 c 0,-2.238281 0.640625,-4.164062 1.921875,-5.78125 1.289063,-1.625 3.0625,-2.875 5.3125,-3.75 2.257813,-0.875 4.875,-1.304688 7.84375,-1.296875 1.738281,0.01172 3.539063,0.15625 5.40625,0.4375 1.875,0.273437 3.539063,0.6875 5,1.25 v -3.015625 c 0.01953,-3.007812 -0.859375,-5.410156 -2.640625,-7.203125 -1.773438,-1.789063 -4.230469,-2.691406 -7.375,-2.703125 -1.917969,0 -3.804688,0.351562 -5.65625,1.046875 -1.855469,0.699219 -3.78125,1.730469 -5.78125,3.09375 L 4.578125,-31.46875 c 2.320313,-1.582031 4.601563,-2.765625 6.84375,-3.546875 2.238281,-0.789063 4.523437,-1.1875 6.859375,-1.1875 4.375,0.02344 7.832031,1.292969 10.375,3.8125 2.550781,2.511719 3.816406,5.980469 3.796875,10.40625 l -0.0625,16.5 c 0,0.636719 0.132813,1.105469 0.40625,1.40625 0.269531,0.292969 0.703125,0.460937 1.296875,0.5 L 34.078125,0.125 c -0.5,0.039062 -0.933594,0.082031 -1.296875,0.125 -0.367188,0.050781 -0.640625,0.054688 -0.828125,0.015625 -1.136719,-0.0625 -2,-0.429687 -2.59375,-1.109375 -0.59375,-0.6875 -0.90625,-1.414062 -0.9375,-2.1875 l -0.07813,-2.609375 c -1.59375,2.042969 -3.671875,3.621094 -6.234375,4.734375 -2.5625,1.101562 -5.167969,1.648438 -7.8125,1.640625 -2.28125,0 -4.34375,-0.496094 -6.1875,-1.484375 C 6.273433,-1.75 4.847651,-3.078125 3.82812,-4.734375 2.804688,-6.398438 2.300781,-8.238281 2.3125,-10.25 Z m 23.859375,2.8125 c 0.5,-0.625 0.890625,-1.234375 1.171875,-1.828125 0.28125,-0.59375 0.421875,-1.117187 0.421875,-1.578125 l 0.01563,-5.203125 c -1.554688,-0.601563 -3.164062,-1.066406 -4.828125,-1.390625 -1.667969,-0.320312 -3.34375,-0.488281 -5.03125,-0.5 -3.335937,-0.0078 -6.03125,0.648438 -8.09375,1.96875 -2.054687,1.3125 -3.078125,3.109375 -3.078125,5.390625 -0.011719,1.324219 0.320312,2.570313 1,3.734375 0.6875,1.15625 1.691406,2.117188 3.015625,2.875 1.320313,0.761719 2.875,1.148438 4.65625,1.15625 2.226563,0.011719 4.3125,-0.410156 6.25,-1.265625 1.9375,-0.863281 3.4375,-1.984375 4.5,-3.359375 z m 0,0"
           id="path2" />
      </g>
    </g>
    <g
       style="fill:#5a8a92;fill-opacity:1"
       id="g6">
      <g
         transform="translate(113.02305,84.679619)"
         id="g5">
        <path
           style="stroke:none"
           d="m 23.046875,-31.453125 c -3.105469,0.07422 -5.839844,0.929687 -8.203125,2.5625 -2.355469,1.636719 -4.015625,3.886719 -4.984375,6.75 L 9.78125,0.03125 5.140625,0.015625 5.28125,-35.640625 9.65625,-35.625 9.625,-27.0625 c 1.238281,-2.5 2.875,-4.519531 4.90625,-6.0625 2.039062,-1.550781 4.203125,-2.414062 6.484375,-2.59375 0.457031,-0.03906 0.851563,-0.05469 1.1875,-0.04687 0.34375,0 0.628906,0.02344 0.859375,0.0625 z m 0,0"
           id="path4" />
      </g>
    </g>
    <g
       style="fill:#5a8a92;fill-opacity:1"
       id="g8">
      <g
         transform="translate(135.94749,84.767096)"
         id="g7">
        <path
           style="stroke:none"
           d="m 20.328125,0.765625 c -2.554687,-0.011719 -4.914063,-0.511719 -7.078125,-1.5 -2.167969,-1 -4.039062,-2.351563 -5.609375,-4.0625 C 6.078125,-6.515625 4.863281,-8.476562 4,-10.6875 c -0.855469,-2.21875 -1.277344,-4.554688 -1.265625,-7.015625 0.00781,-2.5625 0.453125,-4.945313 1.328125,-7.15625 0.875,-2.21875 2.113281,-4.175781 3.71875,-5.875 1.601562,-1.707031 3.488281,-3.046875 5.65625,-4.015625 2.175781,-0.96875 4.539062,-1.445312 7.09375,-1.4375 2.5625,0.01172 4.910156,0.511719 7.046875,1.5 2.132813,0.980469 4,2.328125 5.59375,4.046875 1.59375,1.71875 2.816406,3.6875 3.671875,5.90625 0.851562,2.210937 1.273438,4.59375 1.265625,7.15625 -0.01172,2.460937 -0.453125,4.796875 -1.328125,7.015625 -0.867188,2.210938 -2.089844,4.167969 -3.671875,5.875 -1.574219,1.699219 -3.449219,3.039062 -5.625,4.015625 -2.167969,0.96875 -4.554687,1.445313 -7.15625,1.4375 z M 7.453125,-17.625 c -0.011719,2.648438 0.5625,5.058594 1.71875,7.234375 1.15625,2.167969 2.710937,3.882813 4.671875,5.140625 1.957031,1.261719 4.125,1.898438 6.5,1.90625 2.375,0.011719 4.539062,-0.617188 6.5,-1.890625 1.96875,-1.269531 3.546875,-3.007813 4.734375,-5.21875 1.195313,-2.207031 1.800781,-4.613281 1.8125,-7.21875 0.0078,-2.644531 -0.574219,-5.0625 -1.75,-7.25 -1.179687,-2.195313 -2.746094,-3.9375 -4.703125,-5.21875 -1.949219,-1.289063 -4.109375,-1.941406 -6.484375,-1.953125 -2.375,-0.0078 -4.539063,0.648438 -6.484375,1.96875 -1.9375,1.3125 -3.507812,3.054688 -4.703125,5.21875 -1.199219,2.167969 -1.804687,4.59375 -1.8125,7.28125 z m 0,0"
           id="path6" />
      </g>
    </g>
    <g
       style="fill:#5a8a92;fill-opacity:1"
       id="g10">
      <g
         transform="translate(176.66414,84.922467)"
         id="g9">
        <path
           style="stroke:none"
           d="m 20.328125,0.765625 c -2.554687,-0.011719 -4.914063,-0.511719 -7.078125,-1.5 -2.167969,-1 -4.039062,-2.351563 -5.609375,-4.0625 C 6.078125,-6.515625 4.863281,-8.476562 4,-10.6875 c -0.855469,-2.21875 -1.277344,-4.554688 -1.265625,-7.015625 0.00781,-2.5625 0.453125,-4.945313 1.328125,-7.15625 0.875,-2.21875 2.113281,-4.175781 3.71875,-5.875 1.601562,-1.707031 3.488281,-3.046875 5.65625,-4.015625 2.175781,-0.96875 4.539062,-1.445312 7.09375,-1.4375 2.5625,0.01172 4.910156,0.511719 7.046875,1.5 2.132813,0.980469 4,2.328125 5.59375,4.046875 1.59375,1.71875 2.816406,3.6875 3.671875,5.90625 0.851562,2.210937 1.273438,4.59375 1.265625,7.15625 -0.01172,2.460937 -0.453125,4.796875 -1.328125,7.015625 -0.867188,2.210938 -2.089844,4.167969 -3.671875,5.875 -1.574219,1.699219 -3.449219,3.039062 -5.625,4.015625 -2.167969,0.96875 -4.554687,1.445313 -7.15625,1.4375 z M 7.453125,-17.625 c -0.011719,2.648438 0.5625,5.058594 1.71875,7.234375 1.15625,2.167969 2.710937,3.882813 4.671875,5.140625 1.957031,1.261719 4.125,1.898438 6.5,1.90625 2.375,0.011719 4.539062,-0.617188 6.5,-1.890625 1.96875,-1.269531 3.546875,-3.007813 4.734375,-5.21875 1.195313,-2.207031 1.800781,-4.613281 1.8125,-7.21875 0.0078,-2.644531 -0.574219,-5.0625 -1.75,-7.25 -1.179687,-2.195313 -2.746094,-3.9375 -4.703125,-5.21875 -1.949219,-1.289063 -4.109375,-1.941406 -6.484375,-1.953125 -2.375,-0.0078 -4.539063,0.648438 -6.484375,1.96875 -1.9375,1.3125 -3.507812,3.054688 -4.703125,5.21875 -1.199219,2.167969 -1.804687,4.59375 -1.8125,7.28125 z m 0,0"
           id="path8" />
      </g>
    </g>
    <path
       style="fill:none;stroke:#cccccc;stroke-width:2;stroke-linecap:butt;stroke-linejoin:miter;stroke-miterlimit:4;stroke-opacity:1"
       d="M -0.00225975,1.00054 H 238.3391"
       transform="matrix(0.742927,0,0,0.742927,36.001679,87.998859)"
       id="path10" />
  </g>
</svg>
